{
	"accessors":[{
		"bufferView":0,
		"type":"SCALAR",
		"componentType":5123,
		"count":40734,
		"byteOffset":0,
		"min":[0],
		"max":[10849]
	},
	{
		"bufferView":1,
		"type":"VEC3",
		"componentType":5126,
		"count":10850,
		"byteOffset":0,
		"min":[-0.0022625289857387544,
		-0.0031040809117257597,
		-0.001079327310435474],
		"max":[0.0022376698907464744,
		0.0035595016088336708,
		0.0010807964717969299]
	},
	{
		"bufferView":1,
		"type":"VEC3",
		"componentType":5126,
		"count":10850,
		"byteOffset":12,
		"min":[-1.0,
		-1.0,
		-1.0],
		"max":[1.0,
		1.0,
		1.0]
	},
	{
		"bufferView":2,
		"type":"SCALAR",
		"componentType":5123,
		"count":4464,
		"byteOffset":0,
		"min":[0],
		"max":[806]
	},
	{
		"bufferView":3,
		"type":"VEC3",
		"componentType":5126,
		"count":807,
		"byteOffset":0,
		"min":[-0.0015091078821569682,
		0.0031784235034137966,
		-0.0015092578250914813],
		"max":[0.0015097627183422447,
		0.003464425913989544,
		0.0015092578250914813]
	},
	{
		"bufferView":3,
		"type":"VEC3",
		"componentType":5126,
		"count":807,
		"byteOffset":12,
		"min":[-1.0,
		-1.0,
		-1.0],
		"max":[1.0,
		1.0,
		1.0]
	},
	{
		"bufferView":4,
		"type":"SCALAR",
		"componentType":5123,
		"count":39726,
		"byteOffset":0,
		"min":[0],
		"max":[6910]
	},
	{
		"bufferView":5,
		"type":"VEC3",
		"componentType":5126,
		"count":6911,
		"byteOffset":0,
		"min":[-0.0025909626856446268,
		-0.0035144370049238207,
		-0.0014202218735590578],
		"max":[0.0025909626856446268,
		0.0032906169071793558,
		0.0014058002270758153]
	},
	{
		"bufferView":5,
		"type":"VEC3",
		"componentType":5126,
		"count":6911,
		"byteOffset":12,
		"min":[-1.0,
		-1.0,
		-1.0],
		"max":[1.0,
		1.0,
		1.0]
	}],
	"asset":{
		"version":"2.0",
		"generator":""
	},
	"scenes":[{
		"nodes":[0,
		1,
		2]
	}],
	"nodes":[{
		"name":"螺丝",
		"mesh":0
	},
	{
		"name":"转盘",
		"mesh":1
	},
	{
		"name":"阀门",
		"mesh":2
	}],
	"meshes":[{
		"name":"螺丝",
		"primitives":[{
			"attributes":{
				"POSITION":1,
				"NORMAL":2
			},
			"indices":0
		}]
	},
	{
		"name":"转盘",
		"primitives":[{
			"attributes":{
				"POSITION":4,
				"NORMAL":5
			},
			"indices":3
		}]
	},
	{
		"name":"阀门",
		"primitives":[{
			"attributes":{
				"POSITION":7,
				"NORMAL":8
			},
			"indices":6
		}]
	}],
	"bufferViews":[{
		"buffer":0,
		"byteOffset":0,
		"byteLength":81468,
		"target":34963
	},
	{
		"buffer":0,
		"byteOffset":81468,
		"byteLength":260400,
		"target":34962,
		"byteStride":24
	},
	{
		"buffer":1,
		"byteOffset":0,
		"byteLength":8928,
		"target":34963
	},
	{
		"buffer":1,
		"byteOffset":8928,
		"byteLength":19368,
		"target":34962,
		"byteStride":24
	},
	{
		"buffer":2,
		"byteOffset":0,
		"byteLength":79452,
		"target":34963
	},
	{
		"buffer":2,
		"byteOffset":79452,
		"byteLength":165864,
		"target":34962,
		"byteStride":24
	}],
	"buffers":[{
		"uri":"data:application/octet-stream;base64,",
		"byteLength":341868
	},
	{
		"uri":"data:application/octet-stream;base64,",
		"byteLength":28296
	},
	{
		"uri":"data:application/octet-stream;base64,",
		"byteLength":245316
	}]
}