{
  "asset": {
    "generator": "",
    "version": "2.0"
  },
  "scenes": [
    {
      "nodes": [0, 1]
    }
  ],
  "nodes": [
    {
      "name": "阀门",
      "mesh": 0
    },
    {
      "name": "阀门",
      "mesh": 1
    }
  ],
  "meshes": [
    {
      "name": "阀门",
      "primitives": [
        {
          "attributes": {
            "POSITION": 1,
            "NORMAL": 2
          },
          "indices": 0
        }
      ]
    },
    {
      "name": "阀门",
      "primitives": [
        {
          "attributes": {
            "POSITION": 4,
            "NORMAL": 5
          },
          "indices": 3
        }
      ]
    }
  ],
  "accessors": [
    {
      "bufferView": 0,
      "componentType": 5123,
      "type": "SCALAR",
      "max": [10849],
      "count": 40734,
      "byteOffset": 0,
      "min": [0]
    },
    {
      "bufferView": 1,
      "componentType": 5126,
      "type": "VEC3",
      "max": [
        0.0022376698907464744, 0.0035595016088336708, 0.0010807964717969299
      ],
      "count": 10850,
      "byteOffset": 0,
      "min": [
        -0.0022625289857387544, -0.0031040809117257597, -0.001079327310435474
      ]
    },
    {
      "bufferView": 1,
      "componentType": 5126,
      "type": "VEC3",
      "max": [1.0, 1.0, 1.0],
      "count": 10850,
      "byteOffset": 12,
      "min": [-1.0, -1.0, -1.0]
    },
    {
      "bufferView": 2,
      "componentType": 5123,
      "type": "SCALAR",
      "max": [9896],
      "count": 57564,
      "byteOffset": 0,
      "min": [0]
    },
    {
      "bufferView": 3,
      "componentType": 5126,
      "type": "VEC3",
      "max": [
        0.0025909626856446268, 0.0034640419762581589, 0.0014990941854193807
      ],
      "count": 9897,
      "byteOffset": 0,
      "min": [
        -0.0025909626856446268, -0.0035144370049238207, -0.0014990931376814843
      ]
    },
    {
      "bufferView": 3,
      "componentType": 5126,
      "type": "VEC3",
      "max": [1.0, 1.0, 1.0],
      "count": 9897,
      "byteOffset": 12,
      "min": [-1.0, -1.0, -1.0]
    }
  ],
  "bufferViews": [
    {
      "buffer": 0,
      "byteOffset": 0,
      "byteLength": 81468,
      "target": 34963
    },
    {
      "buffer": 0,
      "byteOffset": 81468,
      "byteLength": 260400,
      "byteStride": 24,
      "target": 34962
    },
    {
      "buffer": 1,
      "byteOffset": 0,
      "byteLength": 115128,
      "target": 34963
    },
    {
      "buffer": 1,
      "byteOffset": 115128,
      "byteLength": 237528,
      "byteStride": 24,
      "target": 34962
    }
  ],
  "buffers": [
    {
      "uri": "data:application/octet-stream;base64,",
      "byteLength": 341868
    },
    {
      "uri": "data:application/octet-stream;base64,",
      "byteLength": 352656
    }
  ]
}
